<svg version="1" xmlns="http://www.w3.org/2000/svg" width="682.667" height="682.667" viewBox="0 0 512.000000 512.000000"><path d="M79.5 27.3c-9.3 3.1-15.2 7.8-19.3 15.5-3 5.6-4.5 13.8-28.2 150.5C18.3 272.8 6.5 339.1 5.9 340.7c-.6 1.5-1.9 6.7-3 11.6-8.1 36.8 3 74.6 29.6 101.2 42.9 42.9 112.1 42.9 155 0 22.3-22.2 34.2-53.7 32.1-84.7l-.7-9.6 4.3-3c6.2-4.2 16.5-8 25.2-9.4 12.8-2 29.3 1.9 40.4 9.4l4.3 3-.7 9.6c-4.5 67 54 123.6 120.3 116.4 66-7.2 110.5-68.6 96.4-132.9-1.1-4.9-2.4-10.1-3-11.6-.6-1.6-12.4-67.9-26.1-147.4-23.7-136.7-25.2-144.9-28.2-150.5-9.8-18.4-35.3-22.1-50.2-7.2-5.4 5.5-8.9 13.3-9 20.6-.1 5.5.1 6.2 3.2 8.9 6.5 5.8 14.2 2.2 16.2-7.5 1.4-6.6 5.1-10.5 10.8-11.3 4.7-.6 9.1 1.5 11.5 5.6 1.5 2.7 43.1 239.1 42.5 241.9-.2.9-2.7-.5-6.6-3.7-12.6-10.1-30-18.3-46.2-21.8-8-1.7-17.7-1.8-168-1.8s-160 .1-168 1.8c-16.2 3.5-33.6 11.7-46.2 21.8-3.9 3.2-6.4 4.6-6.6 3.7-.6-2.8 41-239.2 42.5-241.9 2.4-4.1 6.8-6.2 11.5-5.6 5.7.8 9.4 4.7 10.8 11.3 2 9.7 9.7 13.3 16.2 7.5 3.1-2.7 3.3-3.4 3.2-8.9-.2-11.1-7.5-22-18.1-26.9-6.3-2.9-16.2-3.8-21.8-2zm53 261.6c30.9 8.2 54.6 31.3 64.1 62.6 2.5 8.1 2.8 10.5 2.8 24.5s-.3 16.4-2.8 24.5c-9.3 30.5-31.6 52.8-62.1 62.1-8.1 2.5-10.5 2.8-24.5 2.8s-16.4-.3-24.5-2.8C55 453.3 32.7 431 23.4 400.5c-2.5-8.1-2.8-10.5-2.8-24.5s.3-16.4 2.8-24.5C33.7 317.6 61 293.3 95.7 287c8.1-1.5 27.8-.4 36.8 1.9zm201.5.8c-12.9 10.4-25.7 26.8-32 40.8-1.7 3.8-3.3 7.1-3.5 7.3-.2.2-3.7-1.3-7.8-3.2-11.7-5.7-21.3-7.8-34.7-7.8-13.4 0-23 2.1-34.7 7.8-4.1 1.9-7.6 3.4-7.8 3.2-.2-.2-1.8-3.5-3.5-7.3-6.3-14-19.1-30.4-32-40.8l-4.5-3.7h165l-4.5 3.7zm92.5-.2c30.1 8.9 52.8 31.5 62.1 62 2.5 8.1 2.8 10.5 2.8 24.5s-.3 16.4-2.8 24.5c-9.3 30.5-31.6 52.8-62.1 62.1-8.1 2.5-10.5 2.8-24.5 2.8s-16.4-.3-24.5-2.8c-30.5-9.3-52.8-31.6-62.1-62.1-2.5-8.1-2.8-10.5-2.8-24.5s.3-16.4 2.8-24.5c10.2-33.6 35.7-56.8 70.2-64 10.8-2.3 29.6-1.3 40.9 2z"/><path d="M166.5 346.9c-6.4 2.7-8.1 11-3.2 15.8 6 6.1 16.2 1.9 16.2-6.7 0-6.6-7.2-11.6-13-9.1zM161.7 387.6c-1.8 1-3.9 3.9-6.2 8.9-8.1 17-22.3 26.9-42 29.4-6.3.8-8.3 1.4-10.4 3.5-3.6 3.7-3.6 9.6.2 13.3 2.5 2.6 3.3 2.8 10 2.6 25.2-.6 49.8-17.3 60.3-40.9 3.3-7.5 3.2-11.8-.5-15.5-3.3-3.3-7-3.7-11.4-1.3zM458.5 346.9c-6.4 2.7-8.1 11-3.2 15.8 6 6.1 16.2 1.9 16.2-6.7 0-6.6-7.2-11.6-13-9.1zM453.7 387.6c-1.8 1-3.9 3.9-6.2 8.9-8.1 17-22.3 26.9-42 29.4-6.3.8-8.3 1.4-10.4 3.5-3.6 3.7-3.6 9.6.2 13.3 2.5 2.6 3.3 2.8 10 2.6 25.2-.6 49.8-17.3 60.3-40.9 3.3-7.5 3.2-11.8-.5-15.5-3.3-3.3-7-3.7-11.4-1.3z"/></svg>