<?xml version="1.0" standalone="no"?>
<!DOCTYPE svg PUBLIC "-//W3C//DTD SVG 20010904//EN"
 "http://www.w3.org/TR/2001/REC-SVG-20010904/DTD/svg10.dtd">
<svg version="1.0" xmlns="http://www.w3.org/2000/svg"
 width="700.000000pt" height="700.000000pt" viewBox="0 0 700.000000 700.000000"
 preserveAspectRatio="xMidYMid meet">
<metadata>
Created by potrace 1.11, written by Peter Selinger 2001-2013
</metadata>
<g transform="translate(0.000000,700.000000) scale(0.100000,-0.100000)"
fill="#000000" stroke="none">
<path d="M3298 6715 c-1 -1 -39 -5 -83 -9 -44 -3 -91 -8 -105 -10 -14 -3 -45
-7 -70 -10 -72 -9 -204 -34 -252 -46 -23 -7 -54 -14 -68 -17 -186 -33 -585
-194 -825 -333 -126 -73 -369 -239 -395 -270 -3 -3 -14 -13 -26 -21 -36 -24
-143 -120 -233 -209 -368 -363 -635 -792 -800 -1287 -28 -83 -83 -289 -94
-353 -3 -14 -12 -65 -21 -115 -32 -171 -43 -334 -40 -575 2 -129 5 -248 7
-265 2 -16 7 -55 11 -85 6 -46 23 -153 41 -256 8 -49 78 -306 105 -384 179
-529 499 -1009 925 -1386 323 -286 713 -509 1125 -644 89 -29 304 -87 360 -96
14 -3 61 -11 105 -18 192 -34 286 -41 535 -41 175 0 310 7 395 20 17 2 48 7
70 9 22 3 65 10 95 16 30 6 67 13 82 15 147 26 389 99 563 170 666 270 1222
755 1588 1385 56 98 156 300 186 380 12 30 26 64 31 75 50 110 137 441 169
640 29 185 36 274 36 500 0 255 -13 409 -50 595 -3 14 -8 38 -11 54 -16 92
-88 355 -116 425 -15 38 -23 59 -49 126 -36 94 -124 279 -181 379 -263 462
-626 847 -1073 1138 -308 200 -747 378 -1087 442 -97 18 -153 28 -176 31 -45
5 -135 17 -167 22 -37 5 -502 13 -507 8z m-558 -1000 c41 -9 83 -18 92 -20 60
-13 276 -106 338 -145 8 -5 47 -28 85 -51 39 -23 107 -68 153 -100 45 -33 87
-59 93 -59 6 0 47 27 92 59 160 116 352 220 492 268 161 55 232 67 380 67 187
-1 344 -64 468 -189 44 -45 111 -144 143 -213 33 -69 74 -209 88 -297 18 -109
14 -405 -8 -548 -2 -17 -8 -53 -11 -78 l-7 -45 94 -39 c355 -145 615 -348 724
-564 73 -147 81 -327 19 -481 -91 -224 -368 -451 -731 -600 -53 -22 -99 -41
-101 -44 -2 -2 1 -39 7 -83 21 -142 25 -196 25 -343 0 -179 -7 -248 -39 -370
-46 -175 -121 -307 -231 -408 -166 -152 -368 -197 -655 -147 -172 30 -456 168
-663 321 l-86 63 -83 -61 c-214 -155 -512 -298 -673 -324 -16 -2 -53 -8 -82
-13 -77 -12 -230 -5 -298 13 -117 32 -247 110 -318 191 -35 39 -109 156 -134
213 -31 70 -71 224 -81 312 -14 123 -4 500 13 530 2 3 6 28 10 56 l6 51 -93
38 c-280 111 -553 303 -665 466 -85 124 -118 226 -117 364 0 82 5 114 28 180
74 213 275 405 594 567 62 32 117 58 122 58 4 0 36 12 70 28 l61 27 -6 45 c-4
25 -9 60 -11 77 -17 111 -22 196 -19 338 2 88 6 171 8 185 15 84 21 113 39
180 64 239 229 433 429 506 121 43 293 51 439 19z"/>
<path d="M2440 5446 c-180 -49 -282 -193 -325 -456 -13 -82 -14 -349 -1 -430
17 -110 18 -111 34 -106 73 23 260 62 425 90 157 27 201 38 212 52 77 109 278
337 413 468 45 44 82 82 82 85 -1 6 -50 39 -170 117 -108 70 -261 138 -381
170 -80 21 -230 26 -289 10z"/>
<path d="M4335 5450 c-171 -30 -349 -116 -609 -292 -6 -4 49 -68 130 -150 117
-119 262 -285 359 -409 16 -21 33 -28 75 -33 45 -5 147 -21 255 -41 37 -6 250
-55 284 -65 40 -11 38 -12 45 23 21 116 28 383 13 492 -22 168 -75 293 -159
377 -64 64 -149 98 -255 103 -48 2 -110 0 -138 -5z"/>
<path d="M3340 4811 c-89 -91 -165 -172 -170 -180 -7 -14 25 -16 330 -16 298
0 337 2 330 15 -4 8 -80 89 -169 180 l-160 165 -161 -164z"/>
<path d="M3258 4335 c-2 -1 -52 -6 -113 -9 -113 -7 -229 -16 -231 -19 0 -1
-30 -45 -65 -97 -126 -183 -257 -406 -353 -597 l-56 -113 56 -112 c96 -191
217 -397 343 -583 41 -60 75 -111 75 -111 2 -3 124 -13 241 -21 249 -17 853
-3 922 22 36 12 306 452 431 702 l51 101 -48 100 c-91 184 -262 475 -379 642
-25 36 -46 66 -46 67 -1 0 -39 4 -86 8 -47 4 -101 9 -120 11 -38 5 -617 13
-622 9z m368 -588 c99 -50 146 -129 148 -247 1 -61 -4 -84 -22 -120 -55 -105
-135 -154 -252 -154 -62 -1 -84 4 -127 26 -55 29 -111 91 -134 148 -8 19 -14
67 -14 105 1 129 78 228 205 265 51 15 143 4 196 -23z"/>
<path d="M2440 4234 c-118 -26 -235 -57 -243 -64 -4 -4 -4 -18 2 -31 5 -13 28
-84 52 -156 23 -73 45 -133 48 -133 3 0 35 53 71 117 36 64 88 154 117 200 58
92 60 90 -47 67z"/>
<path d="M4497 4193 c38 -60 143 -240 178 -306 11 -20 22 -37 26 -37 5 0 68
180 75 215 1 6 9 32 17 58 12 36 12 49 4 52 -36 11 -135 38 -157 42 -13 2 -55
11 -93 19 -37 8 -72 14 -78 14 -5 0 8 -26 28 -57z"/>
<path d="M1860 4056 c-127 -53 -327 -164 -376 -209 -7 -7 -36 -32 -64 -57 -62
-54 -122 -138 -144 -203 -66 -195 98 -404 460 -586 94 -47 184 -85 189 -79 2
2 15 44 30 93 33 113 63 196 127 358 l50 128 -47 117 c-53 131 -114 305 -140
400 -10 34 -20 62 -24 62 -3 -1 -31 -11 -61 -24z"/>
<path d="M5052 4003 c-23 -77 -112 -329 -137 -388 -7 -16 -20 -49 -30 -72
l-17 -41 60 -154 c33 -84 79 -214 103 -288 23 -74 44 -137 45 -139 2 -2 34 9
71 25 243 103 445 245 530 374 45 69 58 109 58 180 0 36 -6 81 -14 100 -55
133 -212 274 -436 388 -82 42 -192 92 -204 92 -3 0 -17 -35 -29 -77z"/>
<path d="M2247 3008 c-25 -79 -47 -151 -49 -162 -2 -15 9 -22 62 -37 36 -10
76 -20 90 -23 14 -2 58 -11 98 -20 92 -20 98 -20 81 0 -7 9 -18 24 -24 34 -5
10 -53 93 -105 184 -52 91 -98 166 -101 166 -3 0 -27 -64 -52 -142z"/>
<path d="M4658 3082 c-90 -160 -113 -200 -146 -252 -20 -30 -40 -61 -46 -68
-8 -11 -3 -13 29 -7 22 4 45 8 50 9 6 1 37 8 70 15 52 11 146 35 182 46 8 3 3
32 -17 97 -41 139 -72 228 -79 228 -3 0 -23 -30 -43 -68z"/>
<path d="M2126 2518 c-20 -102 -28 -369 -14 -493 24 -207 125 -384 255 -445
186 -87 475 -19 796 189 53 34 100 68 106 75 9 10 -3 27 -51 73 -129 123 -242
247 -385 423 -64 78 -72 85 -113 91 -216 32 -444 77 -571 115 -12 3 -18 -4
-23 -28z"/>
<path d="M4825 2539 c-43 -13 -289 -67 -360 -78 -84 -14 -113 -19 -165 -26
-67 -9 -72 -12 -108 -61 -88 -119 -269 -322 -404 -452 -51 -50 -65 -68 -57
-78 19 -23 197 -134 286 -179 92 -46 194 -84 278 -105 70 -17 210 -20 259 -6
23 7 43 13 46 14 23 5 53 21 96 53 98 72 171 225 192 404 13 114 6 391 -13
490 -2 11 -4 23 -4 28 -1 8 -7 8 -46 -4z"/>
<path d="M3210 2325 c30 -33 108 -114 173 -180 l118 -120 117 120 c122 125
204 213 214 230 4 7 -110 10 -335 10 l-342 0 55 -60z"/>
</g>
</svg>
