<svg xmlns="http://www.w3.org/2000/svg" viewBox="0 0 27 23" width="27" height="23">
	<style>
		tspan { white-space:pre }
		.shp0 { fill: #000000 } 
	</style>
	<g id="Layer_1">
	</g>
	<g id="Layer_2">
		<g id="Layer">
			<path id="Layer" class="shp0" d="M7.29,7.49l-2.83,2.83l7.78,7.78l13.93,-13.93l-2.83,-2.83l-11.1,11.1z" />
			<path id="Layer" class="shp0" d="M21,20c0,0.54 -0.46,1 -1,1h-17c-0.54,0 -1,-0.46 -1,-1v-17c0,-0.54 0.46,-1 1,-1h16.91l1.59,-1.58c-0.44,-0.26 -0.95,-0.41 -1.49,-0.41h-17c-1.65,0 -3,1.35 -3,3v17c0,1.65 1.35,3 3,3h17c1.65,0 3,-1.35 3,-3v-9.83l-2,2z" />
		</g>
	</g>
</svg>