<svg xmlns="http://www.w3.org/2000/svg" width="160" height="65">
  <style>
    .shp0{fill:#000}
  </style>
  <g id="Layer">
    <path id="Layer" d="M157.94 49.37c-1.24.16-2.52.27-3.76.38v.06c-2.41 17.36-26.19 20.23-26.78 6.6-.27-6.17 11.59-7.95 23.4-9.09.43-11.09-15.9 5.67-21.61-4.6-5.02-9.02 14.63-17.94 16.73-16.1 6.44 5.64 3.4 6.62-1.38 8.33-9.49 3.41-5.79 4.11-4.51 3.73 7.57-2.25 14.37-1.04 14.31 8.32 1.29-.11 2.52-.16 3.76-.27 2.31-.22 2.47 2.43-.16 2.65zm-7.52.76c-9.12 1.03-17.01 2.44-16.15 5.35 1.72 5.57 13.58 6.82 16.15-5.35z" class="shp0"/>
  </g>
  <g id="Layer">
    <path id="Layer" d="M117.68 44.92c-.68-.04-.7-6.04.11-11.69 1-6.95 11.94-3.36 9.09-1.91-2.97 1.52-4.43 8.72-6.27 12.09-.63 1.16-2.6 1.53-2.94 1.51z" class="shp0"/>
  </g>
  <g id="Layer">
    <path id="Layer" d="M42.11 21c2.38 4.87-4.94 8.17-8.29 4.52-1.4-1.55-.76-4.56 2.64-6.19 1.7-.84 4.07-1.6 5.66 1.67z" class="shp0"/>
  </g>
  <g id="Layer">
    <path id="Layer" d="M57.06 18.86c2.59 5.3-5.38 8.9-9.03 4.92-1.52-1.7-.82-4.96 2.87-6.74 1.85-.91 4.43-1.74 6.16 1.82z" class="shp0"/>
  </g>
  <g id="Layer">
    <path id="Layer" d="M28.88 61.67c-7.92 5.34-14.22 4.16-12.21-10.85 1.45-10.9-.95-11.52-3.12-9.44-2.85 2.7-4.63 9.72-4.68 16.41.28 1.69.61 3.31 1 4.78.33 1.63-4.91 3.31-7.97 1.01C.84 62.8.01 54.87.01 44.14c0-8.82 1.17-14.89 2.23-15.17 8.03-2.19 9.31 1.35 7.58 7.98-.72 2.75-1.17 5.4-1.39 7.92 1.67-4.66 4.07-8.48 6.8-10.17 7.42-4.66 13.61-2.47 12.43 6.8-2.01 16.58-2.17 18.83-.39 17.54 2.23-1.57 3.68 1.24 1.62 2.64z" class="shp0"/>
  </g>
  <g id="Layer">
    <path id="Layer" d="M54.98 59.59c-2.17 3.48-7.81 5.17-13.22 4.55-7.75-.84-12.55-7.76-10.7-18.1 2.01-11.19 18.07-18.32 23.2-10.34 3.73 5.79-2.17 16.02-11.6 19.78-.17.06-.34.11-.5.17 1.95 5.17 6.58 7.48 11.04 2.36 2.12-2.36 3.62-1.35 1.78 1.58zm-13.6-7.42c5.85-4.16 7.81-13.32 6.19-15.9-1.73-2.7-5.07 1.52-6.24 11.75-.11 1.46-.11 2.87.06 4.16z" class="shp0"/>
  </g>
  <g id="Layer">
    <path id="Layer" d="M83.09 44.99c-1.6 2.51-3.9 4.38-5.97 5.06-2.4.73-5.19.06-5.19-2.7 0-1.01.89-3.37 3.62-4.72-.17-1.91-1.39-2.42-2.29-1.69-3.34 2.59-7.42 12.25-6.36 19.22.06.17.06.34.06.51.17.62.33 1.24.56 1.85.56 1.57-4.91 3.32-7.97.96-1.06-.79-1.62-6.97-1.62-17.7 0-8.82 1.95-16.64 3.01-16.92 6.41-1.74 10.15 1.29 8.14 7.25-1.17 3.37-2.23 6.8-2.84 10.4 2.45-6.69 6.52-12.87 9.81-14.5 5.86-2.92 10.09.96 8.87 7.81-.06.11-.11.39-.11.45-.06.56-.57 2.3-.39 1.74-.52 1.65-.89 2.28-1.34 2.98z" class="shp0"/>
  </g>
  <g id="Layer">
    <path id="Layer" d="M113.21 26.16c-.44 2.3-.84 4.83-1.11 7.53-1.06 10.06-.61 19 .61 22.99.73 2.14 3.46 4.95 6.08 2.02 2.84-3.2 5.97-1.35 2.17 2.42-2.34 2.3-6.69 3.88-11.04 3.43-3.12-.39-5.02-2.41-6.13-5.51-.44.9-.95 1.69-1.56 2.3-2.12 2.19-4.69 3.43-7.97 3.09-6.64-.73-10.54-7.92-8.7-18.15 1.95-10.79 11.32-14.73 16.73-11.86.11-1.35.22-2.7.33-4.1.06-.28.06-.56.11-.84-1.56.34-3.23.68-4.96.96C73.8 34.43 82.05 14.87 87.9 9.76c6.64-5.73 7.36-1.86 5.3-.56-3.68 2.36-5.3 15.91 5.24 15.91 1.73 0 3.35-.11 4.96-.28 3.29-18.32 13.27-27.2 21.36-24.28 8.98 3.26 8.03 17.54-11.54 25.63zm-10.93 24.39c-.22-3.54-.22-7.53-.17-11.64 0-.51.06-1.01.06-1.46-3.35-1.52-6.64 3.65-7.47 10.79-.95 8.37 2.79 12.81 4.91 10.79 1.62-1.63 2.45-6.8 2.68-8.49zm24.09-43.16c-1.78-2.64-8.31.56-12.1 14.33 9.54-4.55 13.33-12.42 12.1-14.33z" class="shp0"/>
  </g>
</svg>
