<svg xmlns="http://www.w3.org/2000/svg" width="26" height="15">
  <style>
  </style>
  <path id="Layer" fill="#fff" d="M16.14 11.51c.96-.31 2.18 2.04 3.48 2.94.98.68 1.73.53 1.73.53l3.47-.05s1.82-.11.96-1.55c-.07-.12-.5-1.07-2.59-3.02-2.18-2.04-1.88-1.71.74-5.24 1.6-2.15 2.24-3.47 2.04-4.03-.19-.54-1.36-.4-1.36-.4L20.7.72c-.38 0-.7.12-.85.52 0 0-.62 1.67-1.45 3.08-1.74 2.99-2.44 3.15-2.72 2.96-.66-.43-.49-1.74-.49-2.66 0-2.9.43-4.11-.85-4.42-.43-.1-.74-.17-1.83-.18-1.39-.02-2.57 0-3.24.33-.45.22-.79.71-.58.74.26.03.84.16 1.15.59.4.55.39 1.79.39 1.79s.23 3.41-.54 3.83c-.53.29-1.25-.3-2.8-3.02C6.1 2.89 5.5 1.36 5.5 1.36s-.12-.28-.33-.44c-.25-.19-.6-.24-.6-.24L.86.7S.3.72.1.96c-.18.22-.01.67-.01.67S3 8.51 6.29 11.98c3.02 3.18 6.45 2.97 6.45 2.97h1.55s.47-.05.71-.31c.22-.24.21-.69.21-.69s-.03-2.11.94-2.42z"/>
</svg>
